<svg width="30" height="30" viewBox="0 0 31 36" fill="none" xmlns="http://www.w3.org/2000/svg">
<mask id="path-1-inside-1" fill="white">
<path d="M19.5875 1.97334H15.4998V4.50145H18.31V9.26274C18.31 13.4447 14.8718 16.8471 10.6458 16.8471C6.41981 16.8471 2.98161 13.4448 2.98161 9.2628V4.50145H5.70668V1.97334H1.70424C0.998706 1.97334 0.42688 2.5392 0.42688 3.23739V9.2628C0.42688 14.839 5.01092 19.3753 10.6459 19.3753C16.2808 19.3753 20.8648 14.839 20.8648 9.2628V3.23739C20.8648 2.5392 20.293 1.97334 19.5875 1.97334Z"/>
</mask>
<path d="M19.5875 1.97334H15.4998V4.50145H18.31V9.26274C18.31 13.4447 14.8718 16.8471 10.6458 16.8471C6.41981 16.8471 2.98161 13.4448 2.98161 9.2628V4.50145H5.70668V1.97334H1.70424C0.998706 1.97334 0.42688 2.5392 0.42688 3.23739V9.2628C0.42688 14.839 5.01092 19.3753 10.6459 19.3753C16.2808 19.3753 20.8648 14.839 20.8648 9.2628V3.23739C20.8648 2.5392 20.293 1.97334 19.5875 1.97334Z" fill="white"/>
<path d="M15.4998 1.97334V-1.02666H12.4998V1.97334H15.4998ZM15.4998 4.50145H12.4998V7.50145H15.4998V4.50145ZM18.31 4.50145H21.31V1.50145H18.31V4.50145ZM2.98161 4.50145V1.50145H-0.0183935V4.50145H2.98161ZM5.70668 4.50145V7.50145H8.70668V4.50145H5.70668ZM5.70668 1.97334H8.70668V-1.02666H5.70668V1.97334ZM20.8648 3.23739H23.8648H20.8648ZM19.5875 -1.02666H15.4998V4.97334H19.5875V-1.02666ZM12.4998 1.97334V4.50145H18.4998V1.97334H12.4998ZM15.4998 7.50145H18.31V1.50145H15.4998V7.50145ZM15.31 4.50145V9.26274H21.31V4.50145H15.31ZM15.31 9.26274C15.31 11.7583 13.2446 13.8471 10.6458 13.8471V19.8471C16.4989 19.8471 21.31 15.1311 21.31 9.26274H15.31ZM10.6458 13.8471C8.04697 13.8471 5.98161 11.7584 5.98161 9.2628H-0.0183935C-0.0183935 15.1312 4.79265 19.8471 10.6458 19.8471V13.8471ZM5.98161 9.2628V4.50145H-0.0183935V9.2628H5.98161ZM2.98161 7.50145H5.70668V1.50145H2.98161V7.50145ZM8.70668 4.50145V1.97334H2.70668V4.50145H8.70668ZM5.70668 -1.02666H1.70424V4.97334H5.70668V-1.02666ZM1.70424 -1.02666C-0.628454 -1.02666 -2.57312 0.852811 -2.57312 3.23739H3.42688C3.42688 4.2256 2.62587 4.97334 1.70424 4.97334V-1.02666ZM-2.57312 3.23739V9.2628H3.42688V3.23739H-2.57312ZM-2.57312 9.2628C-2.57312 16.5254 3.38376 22.3753 10.6459 22.3753V16.3753C6.63808 16.3753 3.42688 13.1526 3.42688 9.2628H-2.57312ZM10.6459 22.3753C17.9079 22.3753 23.8648 16.5254 23.8648 9.2628H17.8648C17.8648 13.1526 14.6536 16.3753 10.6459 16.3753V22.3753ZM23.8648 9.2628V3.23739H17.8648V9.2628H23.8648ZM23.8648 3.23739C23.8648 0.852811 21.9202 -1.02666 19.5875 -1.02666V4.97334C18.6658 4.97334 17.8648 4.2256 17.8648 3.23739H23.8648Z" fill="white" mask="url(#path-1-inside-1)"/>
<mask id="path-3-inside-2" fill="white">
<path d="M24.5691 20.4287V26.412C24.5691 29.897 21.7039 32.7323 18.1822 32.7323C14.6605 32.7323 11.7953 29.897 11.7953 26.412V18.1534H9.2406V26.412C9.2406 31.2908 13.2515 35.2604 18.1822 35.2604C23.1124 35.2604 27.1238 31.2908 27.1238 26.412V20.4287H24.5691Z"/>
</mask>
<path d="M24.5691 20.4287V26.412C24.5691 29.897 21.7039 32.7323 18.1822 32.7323C14.6605 32.7323 11.7953 29.897 11.7953 26.412V18.1534H9.2406V26.412C9.2406 31.2908 13.2515 35.2604 18.1822 35.2604C23.1124 35.2604 27.1238 31.2908 27.1238 26.412V20.4287H24.5691Z" fill="white"/>
<path d="M24.5691 20.4287V17.4287H21.5691V20.4287H24.5691ZM11.7953 18.1534H14.7953V15.1534H11.7953V18.1534ZM9.2406 18.1534V15.1534H6.2406V18.1534H9.2406ZM27.1238 20.4287H30.1238V17.4287H27.1238V20.4287ZM21.5691 20.4287V26.412H27.5691V20.4287H21.5691ZM21.5691 26.412C21.5691 28.2106 20.0768 29.7323 18.1822 29.7323V35.7323C23.3311 35.7323 27.5691 31.5834 27.5691 26.412H21.5691ZM18.1822 29.7323C16.2876 29.7323 14.7953 28.2106 14.7953 26.412H8.79533C8.79533 31.5834 13.0333 35.7323 18.1822 35.7323V29.7323ZM14.7953 26.412V18.1534H8.79533V26.412H14.7953ZM11.7953 15.1534H9.2406V21.1534H11.7953V15.1534ZM6.2406 18.1534V26.412H12.2406V18.1534H6.2406ZM6.2406 26.412C6.2406 32.9771 11.6243 38.2604 18.1822 38.2604V32.2604C14.8788 32.2604 12.2406 29.6045 12.2406 26.412H6.2406ZM18.1822 38.2604C24.7396 38.2604 30.1238 32.9772 30.1238 26.412H24.1238C24.1238 29.6044 21.4853 32.2604 18.1822 32.2604V38.2604ZM30.1238 26.412V20.4287H24.1238V26.412H30.1238ZM27.1238 17.4287H24.5691V23.4287H27.1238V17.4287Z" fill="white" mask="url(#path-3-inside-2)"/>
<mask id="path-5-inside-3" fill="white">
<path d="M25.8468 12.2544C23.2401 12.2544 21.1201 14.3523 21.1201 16.9314C21.1201 19.5102 23.2401 21.6085 25.8464 21.6085C28.4527 21.6085 30.5727 19.5102 30.5731 16.9314C30.5731 14.3523 28.4527 12.2544 25.8468 12.2544ZM25.8464 19.0804C24.6487 19.0804 23.6744 18.1164 23.6744 16.9315C23.6744 15.7467 24.6486 14.7826 25.8464 14.7826C27.0437 14.7826 28.0179 15.7467 28.0179 16.9315C28.0179 18.1164 27.0437 19.0804 25.8464 19.0804Z"/>
</mask>
<path d="M25.8468 12.2544C23.2401 12.2544 21.1201 14.3523 21.1201 16.9314C21.1201 19.5102 23.2401 21.6085 25.8464 21.6085C28.4527 21.6085 30.5727 19.5102 30.5731 16.9314C30.5731 14.3523 28.4527 12.2544 25.8468 12.2544ZM25.8464 19.0804C24.6487 19.0804 23.6744 18.1164 23.6744 16.9315C23.6744 15.7467 24.6486 14.7826 25.8464 14.7826C27.0437 14.7826 28.0179 15.7467 28.0179 16.9315C28.0179 18.1164 27.0437 19.0804 25.8464 19.0804Z" fill="white"/>
<path d="M30.5731 16.9314L33.5731 16.9319V16.9314L30.5731 16.9314ZM25.8468 9.25438C21.6132 9.25438 18.1201 12.6658 18.1201 16.9314H24.1201C24.1201 16.0389 24.8671 15.2544 25.8468 15.2544V9.25438ZM18.1201 16.9314C18.1201 21.1964 21.6128 24.6085 25.8464 24.6085V18.6085C24.8675 18.6085 24.1201 17.8239 24.1201 16.9314H18.1201ZM25.8464 24.6085C30.0801 24.6085 33.5724 21.1964 33.5731 16.9319L27.5731 16.931C27.573 17.8239 26.8253 18.6085 25.8464 18.6085V24.6085ZM33.5731 16.9314C33.573 12.6658 30.0797 9.25438 25.8468 9.25438V15.2544C26.8256 15.2544 27.5731 16.0388 27.5731 16.9315L33.5731 16.9314ZM25.8464 16.0804C26.2754 16.0804 26.6744 16.4295 26.6744 16.9315H20.6744C20.6744 19.8032 23.022 22.0804 25.8464 22.0804V16.0804ZM26.6744 16.9315C26.6744 17.4335 26.2754 17.7826 25.8464 17.7826V11.7826C23.0219 11.7826 20.6744 14.0599 20.6744 16.9315H26.6744ZM25.8464 17.7826C25.4166 17.7826 25.0179 17.4331 25.0179 16.9315H31.0179C31.0179 14.0603 28.6709 11.7826 25.8464 11.7826V17.7826ZM25.0179 16.9315C25.0179 16.43 25.4166 16.0804 25.8464 16.0804V22.0804C28.6709 22.0804 31.0179 19.8027 31.0179 16.9315H25.0179Z" fill="white" mask="url(#path-5-inside-3)"/>
<mask id="path-7-inside-4" fill="white">
<path d="M5.66408 0.625C4.95854 0.625 4.38672 1.19087 4.38672 1.88906V4.58575C4.38672 5.28394 4.95854 5.84981 5.66408 5.84981C6.36961 5.84981 6.94144 5.28394 6.94144 4.58575V1.88906C6.94144 1.19087 6.36961 0.625 5.66408 0.625Z"/>
</mask>
<path d="M5.66408 0.625C4.95854 0.625 4.38672 1.19087 4.38672 1.88906V4.58575C4.38672 5.28394 4.95854 5.84981 5.66408 5.84981C6.36961 5.84981 6.94144 5.28394 6.94144 4.58575V1.88906C6.94144 1.19087 6.36961 0.625 5.66408 0.625Z" fill="white"/>
<path d="M5.66408 -2.375C3.33137 -2.375 1.38672 -0.495515 1.38672 1.88906H7.38672C7.38672 2.87725 6.58571 3.625 5.66408 3.625V-2.375ZM1.38672 1.88906V4.58575H7.38672V1.88906H1.38672ZM1.38672 4.58575C1.38672 6.97032 3.33137 8.84981 5.66408 8.84981V2.84981C6.58571 2.84981 7.38672 3.59755 7.38672 4.58575H1.38672ZM5.66408 8.84981C7.99678 8.84981 9.94144 6.97032 9.94144 4.58575H3.94144C3.94144 3.59755 4.74245 2.84981 5.66408 2.84981V8.84981ZM9.94144 4.58575V1.88906H3.94144V4.58575H9.94144ZM9.94144 1.88906C9.94144 -0.495516 7.99678 -2.375 5.66408 -2.375V3.625C4.74245 3.625 3.94144 2.87726 3.94144 1.88906H9.94144Z" fill="white" mask="url(#path-7-inside-4)"/>
<mask id="path-9-inside-5" fill="white">
<path d="M15.5424 0.625C14.8368 0.625 14.265 1.19087 14.265 1.88906V4.58575C14.265 5.28394 14.8368 5.84981 15.5424 5.84981C16.2479 5.84981 16.8197 5.28394 16.8197 4.58575V1.88906C16.8197 1.19087 16.2479 0.625 15.5424 0.625Z"/>
</mask>
<path d="M15.5424 0.625C14.8368 0.625 14.265 1.19087 14.265 1.88906V4.58575C14.265 5.28394 14.8368 5.84981 15.5424 5.84981C16.2479 5.84981 16.8197 5.28394 16.8197 4.58575V1.88906C16.8197 1.19087 16.2479 0.625 15.5424 0.625Z" fill="white"/>
<path d="M15.5424 -2.375C13.2097 -2.375 11.265 -0.495506 11.265 1.88906H17.265C17.265 2.87725 16.464 3.625 15.5424 3.625V-2.375ZM11.265 1.88906V4.58575H17.265V1.88906H11.265ZM11.265 4.58575C11.265 6.97031 13.2097 8.84981 15.5424 8.84981V2.84981C16.464 2.84981 17.265 3.59756 17.265 4.58575H11.265ZM15.5424 8.84981C17.8751 8.84981 19.8197 6.97032 19.8197 4.58575H13.8197C13.8197 3.59756 14.6207 2.84981 15.5424 2.84981V8.84981ZM19.8197 4.58575V1.88906H13.8197V4.58575H19.8197ZM19.8197 1.88906C19.8197 -0.495509 17.8751 -2.375 15.5424 -2.375V3.625C14.6207 3.625 13.8197 2.87725 13.8197 1.88906H19.8197Z" fill="white" mask="url(#path-9-inside-5)"/>
</svg>