<svg width="46" height="46" viewBox="0 0 46 46" fill="none" xmlns="http://www.w3.org/2000/svg">
<path d="M15.3333 30.6667V23C15.3333 20.9667 16.141 19.0166 17.5788 17.5789C19.0166 16.1411 20.9667 15.3333 23 15.3333C25.0333 15.3333 26.9834 16.1411 28.4211 17.5789C29.8589 19.0166 30.6666 20.9667 30.6666 23V30.6667" stroke="white" stroke-width="2" stroke-linecap="round" stroke-linejoin="round"/>
<path d="M35.2667 10.7333L33.925 12.075M5.75 23H7.66667H5.75ZM23 5.75V7.66667V5.75ZM38.3333 23H40.25H38.3333ZM10.7333 10.7333L12.075 12.075L10.7333 10.7333Z" stroke="white" stroke-width="2" stroke-linecap="round" stroke-linejoin="round"/>
<path d="M32.5833 30.6667H13.4167C12.3581 30.6667 11.5 31.5248 11.5 32.5833V36.4167C11.5 37.4752 12.3581 38.3333 13.4167 38.3333H32.5833C33.6419 38.3333 34.5 37.4752 34.5 36.4167V32.5833C34.5 31.5248 33.6419 30.6667 32.5833 30.6667Z" stroke="white" stroke-width="2" stroke-linecap="round" stroke-linejoin="round"/>
</svg>